# xmcd
#
# Track frame offsets:
#   150
#   18447
#   38107
#   64760
#   90790
#   122162
#   138135
#   164927
#   193045
#   218027
#   250170
#
# Disc length: 4404 seconds
#
# Revision: 8
# Processed by: cddbd v1.5PL3 Copyright (c) Steve Scherf et al.
# Submitted via: Media_Universe 3.0
#
DISCID=9411320b
DTITLE=Joe Strummer and The Mescaleros - Global A Go-Go
DYEAR=2001
DGENRE=Rock
TTITLE0=Johnny Appleseed
TTITLE1=Cool'N'Out
TTITLE2=Global A Go-Go
TTITLE3=Bhindi Bhagee
TTITLE4=Gamma Ray
TTITLE5=Mega Bottle Ride
TTITLE6=Shaktar Donetsk
TTITLE7=Mondo Bongo
TTITLE8=Bummed Out City
TTITLE9=At the Border, Guy
TTITLE10=Minstrel Boy
EXTD=2001 Hellcat Records
EXTT0=
EXTT1=
EXTT2=
EXTT3=
EXTT4=
EXTT5=
EXTT6=
EXTT7=
EXTT8=
EXTT9=
EXTT10=
PLAYORDER=
